<svg id="good" xmlns="http://www.w3.org/2000/svg" xmlns:xlink="http://www.w3.org/1999/xlink" width="21.725" height="20.82" viewBox="0 0 21.725 20.82">
  <defs>
    <clipPath id="clip-path">
      <rect id="Rectangle_149" data-name="Rectangle 149" width="21.725" height="20.82" fill="#ff4343"/>
    </clipPath>
  </defs>
  <g id="Group_714" data-name="Group 714" clip-path="url(#clip-path)">
    <path id="Path_1663" data-name="Path 1663" d="M10.43,2.7h0a2.1,2.1,0,0,0-.058.214c-.029.12-.06.258-.1.425-.018.078-.036.162-.056.251a20.576,20.576,0,0,1-.565,2.073,10.649,10.649,0,0,1-2.865,4.6v8.746h6.564c2.533,0,4.028-.741,4.954-1.833A8.431,8.431,0,0,0,19.9,12.291a2.184,2.184,0,0,0-.167-1.223c-.087-.145-.247-.318-.779-.318H12.109a.9.9,0,0,1-.721-1.45v0l.009-.013.04-.051c.033-.049.087-.122.149-.216.129-.189.307-.46.5-.787A9.455,9.455,0,0,0,13.1,5.872a9.589,9.589,0,0,0,.323-2.251,2.055,2.055,0,0,0-.2-1.061,1.853,1.853,0,0,0-1.379-.745A1.424,1.424,0,0,0,10.43,2.7m3.334,6.244a10.9,10.9,0,0,0,1.092-2.634,11.282,11.282,0,0,0,.376-2.689,3.769,3.769,0,0,0-.5-2.053A3.662,3.662,0,0,0,11.949.006,3.234,3.234,0,0,0,8.815,1.877a2.828,2.828,0,0,0-.2.605c-.033.138-.071.3-.111.48-.016.073-.033.149-.049.227A19.089,19.089,0,0,1,7.941,5.08,8.832,8.832,0,0,1,5.556,8.939H1.84A1.845,1.845,0,0,0,0,10.79v8.181a1.843,1.843,0,0,0,1.84,1.848H13.355c2.912,0,4.978-.87,6.335-2.473a10.159,10.159,0,0,0,2.017-5.919,3.893,3.893,0,0,0-.418-2.289,2.557,2.557,0,0,0-2.331-1.2ZM4.98,10.75H1.84l-.007,0-.011.007-.007.011,0,.02v8.181l0,.018L1.822,19l.011.007.007,0,3.141,0Z" transform="translate(0 0)" fill="#ff4343"/>
  </g>
</svg>
