<svg id="Group_736" data-name="Group 736" xmlns="http://www.w3.org/2000/svg" xmlns:xlink="http://www.w3.org/1999/xlink" width="54.138" height="72" viewBox="0 0 54.138 72">
  <defs>
    <clipPath id="clip-path">
      <rect id="Rectangle_168" data-name="Rectangle 168" width="54.138" height="72" fill="none"/>
    </clipPath>
  </defs>
  <g id="Group_735" data-name="Group 735" clip-path="url(#clip-path)">
    <path id="Path_1740" data-name="Path 1740" d="M316.286,198.788a1.007,1.007,0,1,0-.192-1.423,1.046,1.046,0,0,0,.192,1.423" transform="translate(-278.274 -173.528)" fill="#2d2a28"/>
    <path id="Path_1741" data-name="Path 1741" d="M218.259,233.043a1.044,1.044,0,1,1,.292,1.453,1.085,1.085,0,0,1-.292-1.453" transform="translate(-192.12 -204.892)" fill="#2d2a28"/>
    <path id="Path_1742" data-name="Path 1742" d="M107.869,54.183a3.121,3.121,0,0,0-.508-3.386,2.647,2.647,0,0,0,.06-1.29.909.909,0,0,0-.962-.7.747.747,0,0,0-.548.81,1.068,1.068,0,0,0-.659-1.144,1.006,1.006,0,0,0-1.214.536,6.661,6.661,0,0,0,.162-2.872,2.21,2.21,0,0,0,1.389-4.02,2.192,2.192,0,0,0-2.681.18,9.283,9.283,0,0,0-2.163-3.762A29.632,29.632,0,0,0,78.192,46.7l1.13,2.86a1.552,1.552,0,0,0-1.831,1.281,2.1,2.1,0,0,0,1.153,2.07,4.473,4.473,0,0,0,2.568.278,13.279,13.279,0,0,0,3.452,3.02,14.1,14.1,0,0,0-7.127,4.753,6.576,6.576,0,0,1-6.1-2.5,13.879,13.879,0,0,1-2.625-6.324c-1.468-7.6-.532-18.668,4.211-23.887a2.5,2.5,0,0,0,1.731,1.116,1.948,1.948,0,0,0,1.844-.814,1.421,1.421,0,0,0-.179-1.844,3.145,3.145,0,0,0,2.743-.687c.7-.684.86-1.937.456-2.169a17.777,17.777,0,0,1,13.55-1.333,22.743,22.743,0,0,1,11.279,7.88A31.707,31.707,0,0,1,110.232,43a16.911,16.911,0,0,1,.472,5.965,7.7,7.7,0,0,1-2.835,5.22" transform="translate(-60.06 -19.164)" fill="#2d2a28"/>
    <path id="Path_1743" data-name="Path 1743" d="M278.872,55.577a13.35,13.35,0,0,0-6.4-4.5c-.553-.179-.317-1.055.241-.875a14.171,14.171,0,0,1,6.8,4.736.469.469,0,0,1,0,.641.456.456,0,0,1-.641,0" transform="translate(-239.746 -44.2)" fill="#fff"/>
    <path id="Path_1744" data-name="Path 1744" d="M240.521,44.642a3.821,3.821,0,0,0-.807-.239l-.106-.017c-.107-.017.107.011,0,0-.071-.007-.142-.014-.214-.019a3.849,3.849,0,0,0-.429,0,.457.457,0,0,1-.454-.454.464.464,0,0,1,.454-.454,4.129,4.129,0,0,1,1.8.307.5.5,0,0,1,.271.208.454.454,0,0,1-.163.621.436.436,0,0,1-.349.046" transform="translate(-210.104 -38.279)" fill="#fff"/>
    <path id="Path_1745" data-name="Path 1745" d="M172.751,501.7l-1.6-2.3a.318.318,0,0,1,.113-.432.322.322,0,0,1,.432.113l1.6,2.3a.318.318,0,0,1-.113.432.322.322,0,0,1-.432-.113" transform="translate(-150.726 -439.507)" fill="#2d2a28"/>
    <path id="Path_1746" data-name="Path 1746" d="M176.028,474.948l-3.966-6.34c-.216-.345.33-.662.545-.318l3.966,6.34c.216.345-.33.662-.545.319" transform="translate(-151.526 -412.387)" fill="#2d2a28"/>
    <path id="Path_1747" data-name="Path 1747" d="M178.566,447.185l-6.808-10.318c-.224-.34.322-.656.545-.319l6.808,10.318c.224.34-.322.656-.545.318" transform="translate(-151.255 -384.429)" fill="#2d2a28"/>
    <path id="Path_1748" data-name="Path 1748" d="M148.314,167.372a23.31,23.31,0,0,0,3.513,7.106,8.694,8.694,0,0,0,2.852,2.348,8.859,8.859,0,0,0,4.7.725,30.061,30.061,0,0,0,4.84-.945,29.541,29.541,0,0,0,3.794-1.182c2.485-1,4.727-2.695,5.334-5.435.789-3.56-1.021-7.085-3.038-9.886l.392.225a30.777,30.777,0,0,0-18.061,4.362,33.591,33.591,0,0,0-4.438,3.124c-.446.371-1.091-.267-.641-.641a34.3,34.3,0,0,1,13.176-6.847,30.2,30.2,0,0,1,7.368-1.005q.893-.008,1.786.042a7.031,7.031,0,0,1,.81.058c.372.065.517.4.721.688a19.3,19.3,0,0,1,1.926,3.376,10.885,10.885,0,0,1,.771,7.152,8.117,8.117,0,0,1-3.936,4.743,23.213,23.213,0,0,1-6.062,2.186c-2.564.636-5.275,1.283-7.916.733-5.057-1.053-7.225-6.332-8.763-10.685-.195-.552.681-.789.875-.241" transform="translate(-129.848 -140.344)" fill="#2d2a28"/>
    <path id="Path_1749" data-name="Path 1749" d="M357.277,187.024a2.488,2.488,0,0,1,3.384-.057,2.646,2.646,0,0,1,.358,3.409,2.9,2.9,0,0,1-1.734,1.166.464.464,0,0,1-.558-.317.458.458,0,0,1,.317-.558,1.834,1.834,0,0,0,1.4-2.455,1.564,1.564,0,0,0-2.526-.547.454.454,0,0,1-.641-.641" transform="translate(-314.607 -164.14)" fill="#2d2a28"/>
    <path id="Path_1750" data-name="Path 1750" d="M145.542,252.774a.954.954,0,0,0-.579.158,1.23,1.23,0,0,0-.434,1.645,1.62,1.62,0,0,0,1.079.851,2.172,2.172,0,0,0,1.535-.227.454.454,0,0,1,.458.783,2.9,2.9,0,0,1-3.353-.293,2.467,2.467,0,0,1-.764-1.507,2.087,2.087,0,0,1,.47-1.553,2.014,2.014,0,0,1,1.587-.765.454.454,0,0,1,0,.907" transform="translate(-126.384 -221.87)" fill="#2d2a28"/>
    <path id="Path_1751" data-name="Path 1751" d="M366.344,243.24a1.155,1.155,0,0,1,1.53-.8,1.855,1.855,0,0,1,1.073,1.666,4.556,4.556,0,0,1-1,3.657c-.411.416-1.052-.225-.642-.641a3.338,3.338,0,0,0,.761-2.4,1.931,1.931,0,0,0-.264-1.258c-.171-.2-.527-.3-.583.011a.458.458,0,0,1-.558.317.464.464,0,0,1-.317-.558" transform="translate(-322.705 -213.508)" fill="#2d2a28"/>
    <path id="Path_1752" data-name="Path 1752" d="M379.959,245.233a1.35,1.35,0,0,1,1.715-.141,2.173,2.173,0,0,1,.528,1.529,6.307,6.307,0,0,1-.81,3.522.454.454,0,0,1-.783-.458,5.4,5.4,0,0,0,.7-2.591,3.08,3.08,0,0,0-.134-1.162c-.158-.383-.524-.081-.758.085a.457.457,0,0,1-.62-.163.463.463,0,0,1,.163-.621" transform="translate(-334.509 -215.677)" fill="#2d2a28"/>
    <path id="Path_1753" data-name="Path 1753" d="M338.483,259.491a5.729,5.729,0,0,1-1.217,6.5c-1.768,1.9-4.288,2.759-6.682,3.558l.333-.437a38.548,38.548,0,0,0,2.353,9.414,83.153,83.153,0,0,1,2.818,8.288c.139.567-.736.809-.875.241a85.982,85.982,0,0,0-2.874-8.441,39.037,39.037,0,0,1-2.33-9.5.459.459,0,0,1,.333-.437,15.373,15.373,0,0,0,5.955-3c1.522-1.447,2.437-3.739,1.4-5.731-.269-.517.513-.976.783-.458" transform="translate(-290.705 -228.385)" fill="#2d2a28"/>
    <path id="Path_1754" data-name="Path 1754" d="M289.088,295.739c-1.739.833-2.5,2.867-2.956,4.621a23.059,23.059,0,0,0-.327,7.03,45.168,45.168,0,0,0,2.643,13.5c.581,1.547,1.416,3.78,3.267,4.145,2.063.406,3.647-1.821,4.56-3.334a20.739,20.739,0,0,0,2.668-12.333,14.33,14.33,0,0,0-2.167-6.778,2.47,2.47,0,0,0-1.313-1.109,2.211,2.211,0,0,0-1.613.265,6.1,6.1,0,0,0-2.139,2.692c-.275.515-1.058.058-.783-.458.935-1.753,2.565-4.127,4.919-3.33a4.359,4.359,0,0,1,2.174,2.25,14.424,14.424,0,0,1,1.308,3.327,21.754,21.754,0,0,1-1.265,14c-.877,1.96-2.146,4.219-4.107,5.272a3.541,3.541,0,0,1-2.99.253,4.61,4.61,0,0,1-2.051-1.789,13.616,13.616,0,0,1-1.375-2.919,38.293,38.293,0,0,1-1.179-3.751,48.037,48.037,0,0,1-1.307-7.7c-.134-1.462-.21-2.93-.237-4.4a20.941,20.941,0,0,1,.276-4.354c.42-2.179,1.4-4.857,3.536-5.88.524-.251.985.531.458.783" transform="translate(-250.89 -259.783)" fill="#2d2a28"/>
    <path id="Path_1755" data-name="Path 1755" d="M373.149,319.873c3.27,1.406,4.848,4.92,5.951,8.079a56.469,56.469,0,0,1,3.106,20.317c-.018.582-.925.585-.907,0a55.409,55.409,0,0,0-2.63-18.753,26.751,26.751,0,0,0-2.073-5.071,8.454,8.454,0,0,0-3.9-3.788c-.535-.23-.073-1.012.458-.783" transform="translate(-328.095 -281.74)" fill="#2d2a28"/>
    <path id="Path_1756" data-name="Path 1756" d="M112.58,308.608a14.765,14.765,0,0,0-9.015,6.959c-2.3,3.828-2.861,8.5-3.125,12.877a22.963,22.963,0,0,0,.068,6.2,5.189,5.189,0,0,0,1.264,2.54,5.922,5.922,0,0,0,2.427,1.434,26.116,26.116,0,0,0,6.569,1.02,50.3,50.3,0,0,0,7.062-.108c2.144-.166,4.3-.142,6,1.356.341.3.664.627,1.022.908.133.1.534.462.732.369.686-.321-1.183-1.662-1.4-1.8-.5-.3-.042-1.09.458-.783a4.225,4.225,0,0,1,1.859,1.843,1.182,1.182,0,0,1-.863,1.646c-.732.07-1.395-.593-1.891-1.041a5.511,5.511,0,0,0-2.43-1.49,10.881,10.881,0,0,0-3.4-.109c-1.292.1-2.58.188-3.877.2a44.375,44.375,0,0,1-7.884-.616c-2-.341-4.117-.968-5.406-2.643s-1.409-3.922-1.351-5.962c.138-4.9.483-10.038,2.491-14.575,1.887-4.265,5.827-8.059,10.454-9.1.569-.128.811.747.241.875" transform="translate(-87.546 -271.071)" fill="#2d2a28"/>
    <path id="Path_1757" data-name="Path 1757" d="M128.068,28.333a1.8,1.8,0,0,0,1.643.979,1.625,1.625,0,0,0,1.448-1.142,1.671,1.671,0,0,0,.1-.493,1.383,1.383,0,0,0-.055-.5,1.572,1.572,0,0,0-.572-.812,1.668,1.668,0,0,0-1.9-.132,1.746,1.746,0,0,0-.663,2.1.457.457,0,0,1-.317.558.464.464,0,0,1-.558-.317,2.638,2.638,0,0,1,.776-2.9,2.546,2.546,0,0,1,2.922-.217,2.489,2.489,0,0,1,1.214,2.671,2.575,2.575,0,0,1-2.016,2.048,2.689,2.689,0,0,1-2.9-1.606.456.456,0,0,1,.317-.558.465.465,0,0,1,.558.317" transform="translate(-111.905 -22.112)" fill="#2d2a28"/>
    <path id="Path_1758" data-name="Path 1758" d="M107.76,50.078c.611.922,1.272,2.188.546,3.247a2.466,2.466,0,0,1-2.891.685,2.712,2.712,0,0,1-1.842-2.313,2.261,2.261,0,0,1,1.446-2.284,2.338,2.338,0,0,1,2.74.665.458.458,0,0,1-.163.621.463.463,0,0,1-.621-.163.929.929,0,0,0-.224-.2,1.033,1.033,0,0,0-.4-.152,2.046,2.046,0,0,0-.848.031,1.257,1.257,0,0,0-.7.4,1.471,1.471,0,0,0-.326.8,1.519,1.519,0,0,0,.218.952,1.948,1.948,0,0,0,.8.707,1.793,1.793,0,0,0,1.911-.08c.738-.677-.012-1.809-.435-2.449a.454.454,0,0,1,.783-.458" transform="translate(-91.233 -43.372)" fill="#2d2a28"/>
    <path id="Path_1759" data-name="Path 1759" d="M15.481,4.573A11.964,11.964,0,0,0,8.67.993a11.912,11.912,0,0,0-8,1.668c-.5.307-.955-.477-.458-.783A12.808,12.808,0,0,1,16.122,3.932c.4.423-.238,1.065-.641.641" transform="translate(0 0)" fill="#2d2a28"/>
    <path id="Path_1760" data-name="Path 1760" d="M19.038,21.259A11.275,11.275,0,0,0,5.275,20.017c-.493.316-.948-.469-.458-.783A12.2,12.2,0,0,1,19.68,20.618c.427.4-.216,1.041-.641.641" transform="translate(-4.058 -15.268)" fill="#2d2a28"/>
    <path id="Path_1761" data-name="Path 1761" d="M34.757,41.715a8.753,8.753,0,0,0-10.048.67c-.449.366-1.094-.272-.641-.641a9.687,9.687,0,0,1,11.147-.812.454.454,0,0,1-.458.783" transform="translate(-21.066 -34.832)" fill="#2d2a28"/>
    <path id="Path_1762" data-name="Path 1762" d="M38.3,58.9a7.832,7.832,0,0,0-8.4,4.644c-.223.53-1.1.3-.875-.241a8.767,8.767,0,0,1,9.515-5.278c.575.093.331.967-.241.875" transform="translate(-25.538 -51.01)" fill="#2d2a28"/>
    <path id="Path_1763" data-name="Path 1763" d="M70.125,75.493A13.2,13.2,0,0,0,67.216,80.9a35.263,35.263,0,0,0-1.41,7.559,45.433,45.433,0,0,0-.009,7.869,22.512,22.512,0,0,0,1.273,6.188c1.092,2.8,4.139,5.165,7.25,4.463.568-.128.811.746.241.875-3.113.7-6.374-1.236-7.849-3.958a17.36,17.36,0,0,1-1.649-6,43.193,43.193,0,0,1-.259-8.1,39.53,39.53,0,0,1,1.259-8.185,15.183,15.183,0,0,1,3.421-6.761.454.454,0,0,1,.641.641" transform="translate(-57.016 -65.818)" fill="#2d2a28"/>
    <path id="Path_1764" data-name="Path 1764" d="M190.455,50.432c5.094-4.367,2.478-12.33-.059-17.353a35.6,35.6,0,0,0-5.545-8.136,19.612,19.612,0,0,0-9.265-5.585,18.3,18.3,0,0,0-12.488.7c-.525.249-.985-.532-.458-.783A18.8,18.8,0,0,1,174.193,18.1a20.592,20.592,0,0,1,10.5,5.378,34.194,34.194,0,0,1,5.894,8.022,28.648,28.648,0,0,1,3.533,10.148c.419,3.446-.29,7.074-3.027,9.421-.441.378-1.086-.261-.641-.641" transform="translate(-143.064 -15.593)" fill="#2d2a28"/>
    <path id="Path_1765" data-name="Path 1765" d="M142.71,349.625c2.787,2.334,3.088,6.2,3.232,9.579a95.6,95.6,0,0,1-.285,11.341l-.682-.392c2.9-1.3,6.027-.383,8.84.691a27.5,27.5,0,0,0,4.631,1.5,10.778,10.778,0,0,0,5.131-.3.454.454,0,0,1,.241.875,11.653,11.653,0,0,1-4.866.422,19.921,19.921,0,0,1-4.533-1.294c-2.785-1.065-6.047-2.42-8.987-1.107-.284.127-.711-.014-.682-.392a97.351,97.351,0,0,0,.306-10.815c-.116-3.292-.252-7.173-2.986-9.463-.448-.375.2-1.014.641-.641" transform="translate(-125.015 -307.885)" fill="#2d2a28"/>
    <path id="Path_1766" data-name="Path 1766" d="M342.034,548.435c.288.38.659.789.971,1.186a5.186,5.186,0,0,1,.887,1.417,1.288,1.288,0,0,1-.117,1.142,1.333,1.333,0,0,1-1.291.49.468.468,0,0,1-.454-.454.456.456,0,0,1,.454-.453,2.26,2.26,0,0,0,.309.013c.117,0-.05.023.053-.009.038-.012.076-.02.114-.034-.1.035.006-.01.022-.018.035-.024.038-.026.01,0s-.026.02.005-.007c0,.023.091-.148.012-.007l.048-.083c-.034.06-.018.045,0-.012.009-.033.009-.125.006-.009,0-.034,0-.067,0-.1,0-.015-.01-.113,0-.044s-.012-.048-.015-.062c-.009-.036-.021-.07-.032-.105s-.008-.023.011.021q-.011-.026-.025-.052c-.027-.051-.053-.1-.081-.152a19.8,19.8,0,0,0-1.672-2.2.456.456,0,0,1,.163-.62.465.465,0,0,1,.621.163" transform="translate(-300.549 -482.919)" fill="#2d2a28"/>
    <path id="Path_1767" data-name="Path 1767" d="M321.643,556.31a7.651,7.651,0,0,1,1.5,1.4,4.445,4.445,0,0,1,1,1.737,1.189,1.189,0,0,1-.173.985,1.044,1.044,0,0,1-1.018.364,2.671,2.671,0,0,1-1.508-1.053,4.962,4.962,0,0,0-1.344-1.353l.458-.783c.861.608,1.843,1.406,1.736,2.586a1.507,1.507,0,0,1-.78,1.234,1.318,1.318,0,0,1-1.379-.042.467.467,0,0,1-.163-.621.457.457,0,0,1,.621-.163c.121.09.134.1.257.094a.578.578,0,0,0,.278-.093.678.678,0,0,0,.261-.677c-.086-.7-.755-1.161-1.287-1.537a.454.454,0,0,1,.458-.783,4.755,4.755,0,0,1,1.391,1.328,5.35,5.35,0,0,0,.62.674.957.957,0,0,0,.632.3c.077-.006.07-.057.074-.112a.826.826,0,0,0-.076-.353,4.366,4.366,0,0,0-.533-.878,6.554,6.554,0,0,0-1.481-1.478.467.467,0,0,1-.163-.621.457.457,0,0,1,.621-.163" transform="translate(-281.793 -489.997)" fill="#2d2a28"/>
    <path id="Path_1768" data-name="Path 1768" d="M203.352,320.366c-2.319,1.658-5.51,2.51-8.112.95-2.7-1.617-3.2-4.953-3.547-7.8-.07-.578.838-.573.907,0,.3,2.505.713,5.588,3.1,7.019,2.332,1.4,5.142.519,7.2-.95.476-.34.929.446.458.783" transform="translate(-168.859 -275.794)" fill="#2d2a28"/>
    <path id="Path_1769" data-name="Path 1769" d="M313.2,193.456a1.535,1.535,0,0,1,1.766.168,1.346,1.346,0,0,1,.442.779,1.645,1.645,0,0,1-.126.985,1.329,1.329,0,0,1-.625.633,1.633,1.633,0,0,1-.993.13,1.47,1.47,0,0,1-1.114-1.032,1.422,1.422,0,0,1-.01-.845,1.526,1.526,0,0,1,.66-.819.458.458,0,0,1,.621.163.464.464,0,0,1-.163.621l-.074.05c-.041.026.049-.034.043-.034s-.023.018-.028.023a1.1,1.1,0,0,0-.12.119c-.007.008-.013.017-.021.025-.032.032.048-.052.039-.05s-.035.052-.04.06-.02.034-.03.052l-.013.026c-.036.066.032-.089.019-.047s-.027.077-.037.116c-.005.021-.008.042-.013.063-.009.039.008-.081.01-.075a.145.145,0,0,1,0,.036.971.971,0,0,0,0,.117.293.293,0,0,1,0,.062c0,.008-.019-.117-.01-.076,0,.015,0,.029.008.044a1.128,1.128,0,0,0,.028.111c.005.017.011.033.016.05s.009.022.012.033c.015.047-.048-.1-.026-.06a1.759,1.759,0,0,0,.111.2s.019.025.019.026-.068-.083-.047-.06.023.028.036.042a.906.906,0,0,0,.074.075l.02.017c.03.029-.046-.036-.047-.036a.528.528,0,0,1,.066.044c.023.014.046.027.069.038l.03.015c.047.025-.1-.036-.046-.02s.093.032.141.042c.022,0,.114.019.029.008s.022,0,.042,0c.05,0,.1,0,.148,0,.077,0-.106.02-.03,0,.03-.006.059-.011.089-.019s.051-.014.076-.023.1-.037.02-.006.008-.006.027-.016.046-.026.068-.04l.037-.026c.035-.022-.047.035-.047.036a.46.46,0,0,1,.051-.045c.019-.018.037-.037.054-.057.062-.07-.056.081,0,0a.965.965,0,0,0,.073-.125l.014-.03c.019-.038-.023.059-.024.057s.024-.067.029-.085a1.35,1.35,0,0,0,.032-.142c.01-.055-.011.11-.008.054,0-.011,0-.022,0-.034,0-.03,0-.06,0-.09s0-.045,0-.067,0-.022,0-.033c0-.056.018.109.007.054a1.357,1.357,0,0,0-.038-.152c-.013-.038-.055-.107.01.015-.01-.02-.019-.04-.029-.06s-.026-.045-.04-.067l-.019-.028c-.034-.052.028.032.03.038-.014-.043-.09-.1-.124-.125-.052-.045.09.064.013.012-.024-.016-.049-.032-.075-.046s-.052-.026-.079-.04.061.024.058.024-.032-.012-.041-.015a1.488,1.488,0,0,0-.171-.044c-.069-.015.117.011.022,0q-.044,0-.088,0c-.029,0-.059,0-.088,0-.1.007.091-.019.022,0s-.113.027-.17.045.1-.048.017-.007c-.03.014-.059.031-.087.048a.454.454,0,0,1-.458-.783" transform="translate(-275.262 -170.234)" fill="#2d2a28"/>
    <path id="Path_1770" data-name="Path 1770" d="M215.012,227.772a1.535,1.535,0,0,1,1.766.168,1.347,1.347,0,0,1,.442.779,1.645,1.645,0,0,1-.126.985,1.329,1.329,0,0,1-.625.633,1.633,1.633,0,0,1-.993.13,1.47,1.47,0,0,1-1.114-1.032,1.423,1.423,0,0,1-.01-.845,1.526,1.526,0,0,1,.66-.819.458.458,0,0,1,.621.163.464.464,0,0,1-.163.621l-.074.05c-.041.026.049-.034.043-.034s-.023.019-.028.023a1.087,1.087,0,0,0-.12.119c-.007.008-.013.017-.021.025-.032.032.048-.052.039-.05s-.035.052-.04.06-.02.034-.03.052l-.013.026c-.036.066.032-.089.019-.047s-.027.077-.037.116c-.005.021-.008.042-.013.063-.009.039.008-.081.01-.075a.145.145,0,0,1,0,.036.965.965,0,0,0,0,.117.29.29,0,0,1,0,.062c0,.008-.018-.117-.01-.076,0,.015,0,.029.008.044a1.128,1.128,0,0,0,.028.111c.005.017.011.033.016.05s.009.022.012.033c.015.047-.048-.1-.026-.06a1.743,1.743,0,0,0,.111.2.3.3,0,0,1,.019.026s-.068-.083-.046-.06.023.028.035.042a.9.9,0,0,0,.075.075l.02.017c.03.029-.046-.036-.047-.036a.521.521,0,0,1,.066.044c.023.014.046.027.069.038l.03.015c.047.025-.1-.036-.046-.02s.093.032.141.042c.022,0,.114.019.029.008s.022,0,.042,0c.05,0,.1,0,.148,0,.077,0-.106.02-.03,0,.03-.006.059-.011.089-.019s.051-.014.076-.023.1-.037.02-.006.008-.006.027-.016.046-.026.068-.04l.037-.026c.035-.023-.047.035-.047.036a.457.457,0,0,1,.051-.045c.019-.018.037-.037.054-.057.062-.07-.055.081,0,0a.973.973,0,0,0,.073-.125l.014-.03c.019-.038-.023.059-.024.057s.024-.067.029-.085a1.343,1.343,0,0,0,.032-.142c.01-.055-.011.11-.008.054,0-.011,0-.022,0-.034,0-.03,0-.06,0-.09s0-.045,0-.067,0-.022,0-.033c0-.056.018.109.007.054a1.33,1.33,0,0,0-.038-.152c-.013-.038-.055-.107.01.015-.01-.02-.019-.04-.029-.06s-.026-.045-.04-.067l-.019-.028c-.034-.052.028.032.03.038-.014-.043-.09-.1-.124-.125-.052-.045.09.064.013.012q-.036-.025-.075-.046c-.026-.014-.052-.026-.079-.04s.061.024.058.024-.032-.012-.041-.015a1.483,1.483,0,0,0-.171-.044c-.069-.015.117.011.022,0q-.044,0-.088,0c-.029,0-.059,0-.088,0-.1.007.091-.019.022,0s-.113.027-.17.045.1-.048.017-.007c-.03.014-.059.031-.087.048a.454.454,0,1,1-.458-.783" transform="translate(-188.771 -200.464)" fill="#2d2a28"/>
    <path id="Path_1771" data-name="Path 1771" d="M287.671,223.292a1.3,1.3,0,0,1,.5,1.83.484.484,0,0,1-.271.208.464.464,0,0,1-.349-.046.457.457,0,0,1-.208-.271.451.451,0,0,1,.046-.35.781.781,0,0,0,.072-.131l-.046.108a.825.825,0,0,0,.053-.2l-.016.121a.923.923,0,0,0,0-.224l.016.121a.973.973,0,0,0-.063-.232l.046.108a.924.924,0,0,0-.112-.194l.071.092a.84.84,0,0,0-.135-.137l.092.071a.761.761,0,0,0-.153-.092A.455.455,0,0,1,287,223.8a.464.464,0,0,1,.046-.35.458.458,0,0,1,.271-.208l.121-.016a.451.451,0,0,1,.229.062" transform="translate(-252.809 -196.644)" fill="#2d2a28"/>
    <path id="Path_1772" data-name="Path 1772" d="M305.312,176.9a2.082,2.082,0,0,0-2.8.672.463.463,0,0,1-.621.163.459.459,0,0,1-.163-.621,2.988,2.988,0,0,1,4.041-1,.454.454,0,0,1-.458.783" transform="translate(-265.738 -154.787)" fill="#2d2a28"/>
    <path id="Path_1773" data-name="Path 1773" d="M205.285,212.14l-.1-.021c-.035-.006-.093-.015-.026-.006-.07-.009-.14-.014-.21-.017a2.637,2.637,0,0,0-.421.018c.1-.012-.038.008-.046.009l-.083.017q-.1.022-.2.052t-.2.068c-.006,0-.13.056-.048.019l-.1.045a2.908,2.908,0,0,0-.365.214l-.086.062c.051-.038,0,0-.025.02q-.081.067-.157.141t-.146.152l-.068.08c-.052.062.009-.015-.019.025a2.836,2.836,0,0,0-.227.381.458.458,0,0,1-.62.163.463.463,0,0,1-.163-.621,3.253,3.253,0,0,1,3.557-1.675.454.454,0,1,1-.241.875" transform="translate(-177.865 -186.041)" fill="#2d2a28"/>
    <path id="Path_1774" data-name="Path 1774" d="M267.089,235.274a3.772,3.772,0,0,1-2.279,3.953,4.911,4.911,0,0,1-4.954-.926c-.453-.369.193-1.008.642-.641a4.014,4.014,0,0,0,3.877.772,2.875,2.875,0,0,0,1.84-2.917.469.469,0,0,1,.317-.558.457.457,0,0,1,.558.317" transform="translate(-228.771 -206.962)" fill="#2d2a28"/>
  </g>
</svg>
