<svg xmlns="http://www.w3.org/2000/svg" xmlns:xlink="http://www.w3.org/1999/xlink" width="17.938" height="15.402" viewBox="0 0 17.938 15.402">
  <defs>
    <clipPath id="clip-path">
      <rect id="Rectangle_183" data-name="Rectangle 183" width="17.937" height="15.402" transform="translate(0 0)" fill="#1e1e1e"/>
    </clipPath>
  </defs>
  <g id="Group_755" data-name="Group 755" transform="translate(0 0)">
    <g id="Group_754" data-name="Group 754" transform="translate(0 0)" clip-path="url(#clip-path)">
      <path id="Path_1796" data-name="Path 1796" d="M14.607,45.3H3.318l.023-.123H2.091l-.023.123A2.094,2.094,0,0,0,0,47.392v1.474a.613.613,0,0,0,.614.614H17.324a.613.613,0,0,0,.614-.614V47.392A2.094,2.094,0,0,0,15.86,45.3l-.025-.123H14.582Zm2.1,2.089v.86H1.229v-.86a.862.862,0,0,1,.86-.86h13.76a.862.862,0,0,1,.86.86" transform="translate(0 -34.079)" fill="#1e1e1e"/>
      <path id="Path_1797" data-name="Path 1797" d="M9.728,6.88a5.652,5.652,0,1,1,11.3,0v4.468H22.26V6.88A6.88,6.88,0,1,0,8.5,6.88v4.468H9.728Z" transform="translate(-6.411 0)" fill="#1e1e1e"/>
      <path id="Path_1798" data-name="Path 1798" d="M20.154,16.213a.609.609,0,0,1-.608-.608A3.713,3.713,0,0,1,23.255,11.9a.608.608,0,1,1,0,1.217A2.5,2.5,0,0,0,20.763,15.6a.609.609,0,0,1-.608.608" transform="translate(-14.743 -8.972)" fill="#1e1e1e"/>
    </g>
  </g>
</svg>
