<svg xmlns="http://www.w3.org/2000/svg" xmlns:xlink="http://www.w3.org/1999/xlink" width="18" height="16" viewBox="0 0 18 16">
  <defs>
    <clipPath id="clip-path">
      <rect id="Rectangle_181" data-name="Rectangle 181" width="18" height="16" transform="translate(0.129 0.402)" fill="#1e1e1e"/>
    </clipPath>
  </defs>
  <g id="Group_751" data-name="Group 751" transform="translate(-0.129 0.296)">
    <g id="Group_750" data-name="Group 750" transform="translate(0 -0.698)" clip-path="url(#clip-path)">
      <path id="Path_1785" data-name="Path 1785" d="M.654,15.889A.727.727,0,0,1,0,15.2V.554A.611.611,0,0,1,.654,0h13a.654.654,0,0,1,.462.175l3.234,3.111a.6.6,0,0,1,.21.382V15.2a.8.8,0,0,1-.719.687Zm.619-1.151H16.29V3.887L13.377,1.151H1.273Z" transform="translate(0 0.513)" fill="#1e1e1e"/>
      <path id="Path_1786" data-name="Path 1786" d="M11.687,7.238A.706.706,0,0,1,11,6.607V1.3a.64.64,0,0,1,1.273,0V6.086h6.872V1.663a.64.64,0,0,1,1.273,0V6.607a.658.658,0,0,1-.635.631Z" transform="translate(-8.2 -0.047)" fill="#1e1e1e"/>
      <path id="Path_1787" data-name="Path 1787" d="M32.636,4.431A.606.606,0,0,1,32,3.86V1.3a.64.64,0,0,1,1.273,0V3.86a.606.606,0,0,1-.636.57" transform="translate(-23.855 -0.047)" fill="#1e1e1e"/>
      <path id="Path_1788" data-name="Path 1788" d="M21.436,44.473a.512.512,0,0,1-.509-.57v-4.75H12.273V43.9A.64.64,0,0,1,11,43.9v-5.31A.671.671,0,0,1,11.687,38H21.4a.553.553,0,0,1,.544.592V43.9a.512.512,0,0,1-.509.57" transform="translate(-8.2 -28.737)" fill="#1e1e1e"/>
    </g>
  </g>
</svg>
